<svg width="140" height="18" viewBox="0 0 140 18" fill="none" xmlns="http://www.w3.org/2000/svg">
<path d="M6.11953 12.68C6.7462 12.68 7.39953 12.4933 8.07953 12.12V10.48C8.07953 10.1733 8.05287 9.72667 7.99953 9.14C7.53287 9.00667 6.9262 8.87333 6.17953 8.74L6.23953 8.32C6.5462 8.36 6.83953 8.38 7.11953 8.38C8.29286 8.38 9.3662 8.05333 10.3395 7.4L10.5195 7.76C10.2129 8 9.97287 8.24 9.79953 8.48C9.5462 10.8 9.41287 12.9667 9.39953 14.98C9.01287 15.6867 8.37287 16.3667 7.47953 17.02C6.59953 17.6733 5.79286 18 5.05953 18C4.85953 18 4.69286 17.9467 4.55953 17.84C4.4262 17.7333 4.35953 17.5867 4.35953 17.4C4.7462 17.1067 5.07286 16.7667 5.33953 16.38L5.47953 16.36C5.77286 16.5867 6.11286 16.7 6.49953 16.7C6.8862 16.7 7.15286 16.66 7.29953 16.58C7.8462 15.8467 8.11953 14.6467 8.11953 12.98C7.3862 13.5533 6.57287 13.9933 5.67953 14.3C4.07953 14.3 2.87286 13.8 2.05953 12.8C1.25953 11.7867 0.859531 10.3933 0.859531 8.62C0.859531 6.83333 1.3462 5.18 2.31953 3.66C3.3062 2.12667 4.6262 1.13333 6.27953 0.68C7.6662 0.68 9.05953 0.806666 10.4595 1.06L10.4395 1.5C10.1062 1.5 9.7862 1.56 9.47953 1.68C9.11953 2.52 8.89953 3.46 8.81953 4.5H8.31953C8.19953 3.95333 8.13953 3.33333 8.13953 2.64C7.51287 2.29333 6.7462 2.12 5.83953 2.12C4.93286 2.12 4.2062 2.34667 3.65953 2.8C2.97953 3.96 2.63953 5.43333 2.63953 7.22C2.63953 10.86 3.79953 12.68 6.11953 12.68ZM15.1523 4.24C15.0457 4.96 14.9923 6.43333 14.9923 8.66C14.9923 10.8867 15.0523 12.4467 15.1723 13.34C15.7723 13.4067 16.3257 13.5067 16.8323 13.64L16.7723 14.14C16.079 14.0467 15.299 14 14.4323 14C13.579 14 12.8123 14.0533 12.1323 14.16L12.0523 13.64C12.4257 13.52 12.8457 13.42 13.3123 13.34C13.4323 12.38 13.4923 11.02 13.4923 9.26V8.32C13.4923 6.56 13.4257 5.2 13.2923 4.24C12.8257 4.16 12.4057 4.06 12.0323 3.94L12.1123 3.42C12.7923 3.52667 13.559 3.58 14.4123 3.58C15.279 3.58 16.059 3.53333 16.7523 3.44L16.8123 3.94C16.3057 4.07333 15.7523 4.17333 15.1523 4.24ZM24.3442 4.66C23.8776 4.43333 23.3376 4.32 22.7242 4.32C22.1109 4.32 21.6442 4.34667 21.3242 4.4C21.2176 5.12 21.1642 6.35333 21.1642 8.1C21.6309 8.19333 22.0776 8.24 22.5042 8.24C23.2909 8.24 23.7976 8.00667 24.0242 7.54L24.4442 7.6C24.3242 8 24.2642 8.39333 24.2642 8.78C24.2642 9.16667 24.3109 9.64 24.4042 10.2L23.9242 10.28C23.7776 9.88 23.6709 9.46667 23.6042 9.04C23.0709 8.98667 22.6709 8.96 22.4042 8.96C22.1376 8.96 21.7242 8.99333 21.1642 9.06C21.1642 10.8733 21.2242 12.3 21.3442 13.34C21.9309 13.4067 22.5242 13.5133 23.1242 13.66L23.0642 14.16C22.4109 14.0533 21.6242 14 20.7042 14C19.7842 14 18.9842 14.0533 18.3042 14.16L18.2242 13.64C18.6242 13.5067 19.0442 13.4067 19.4842 13.34C19.6042 12.38 19.6642 11.02 19.6642 9.26V8.32C19.6642 7.09333 19.5976 5.73333 19.4642 4.24C18.9842 4.14667 18.5576 4.02667 18.1842 3.88L18.2442 3.38C19.2442 3.51333 20.5309 3.58 22.1042 3.58C23.6909 3.58 24.9176 3.50667 25.7842 3.36L25.8842 3.76C25.3509 4.32 25.0509 5.15333 24.9842 6.26H24.4842C24.3909 5.82 24.3442 5.28667 24.3442 4.66ZM28.3528 12.48C28.9661 12.7333 29.5728 12.86 30.1728 12.86C30.7728 12.86 31.2528 12.72 31.6128 12.44C31.9728 12.16 32.1528 11.76 32.1528 11.24C32.1528 10.7067 31.3995 10.0467 29.8928 9.26C29.3195 8.96667 28.7928 8.61333 28.3128 8.2C27.8461 7.77333 27.6128 7.35333 27.6128 6.94C27.6128 6.23333 27.9861 5.52 28.7328 4.8C29.4795 4.08 30.2461 3.59333 31.0328 3.34C32.0195 3.34 32.9128 3.44 33.7128 3.64V4C33.1528 4.56 32.8395 5.32667 32.7728 6.3H32.2728C32.2728 5.92667 32.2395 5.46 32.1728 4.9C31.7061 4.68667 31.2061 4.58 30.6728 4.58C30.1395 4.58 29.6928 4.7 29.3328 4.94C28.9861 5.16667 28.8128 5.5 28.8128 5.94C28.8128 6.24667 29.0461 6.58 29.5128 6.94C29.9928 7.3 30.5128 7.62 31.0728 7.9C31.6328 8.18 32.1461 8.52667 32.6128 8.94C33.0928 9.35333 33.3328 9.76667 33.3328 10.18C33.3328 10.98 32.9795 11.78 32.2728 12.58C31.5661 13.3667 30.7861 13.92 29.9328 14.24C29.0928 14.24 28.3061 14.14 27.5728 13.94C27.3595 14.0333 27.1395 14.1867 26.9128 14.4L26.5528 14.14C27.2995 13.3267 27.7128 12.32 27.7928 11.12H28.2928C28.2928 11.5867 28.3128 12.04 28.3528 12.48ZM48.0045 0.459999C47.8179 1.39333 47.6912 2.35333 47.6245 3.34C47.5579 4.32667 47.5245 5.91333 47.5245 8.1C47.5245 10.2867 47.6112 12.02 47.7845 13.3C48.4912 13.3667 49.2245 13.4933 49.9845 13.68L49.9245 14.16C48.9379 14.0533 47.8645 14 46.7045 14C45.5579 14 44.6312 14.0533 43.9245 14.16L43.8445 13.66C44.4445 13.4733 45.0845 13.3333 45.7645 13.24C45.8712 12.36 45.9445 10.94 45.9845 8.98C45.2912 8.9 44.5245 8.86 43.6845 8.86C42.8579 8.86 42.1579 8.9 41.5845 8.98C41.2645 10.2867 41.1045 11.3333 41.1045 12.12C41.1045 12.9067 41.3912 13.4667 41.9645 13.8L41.8845 14.08C41.4712 14.0267 40.7712 14 39.7845 14C38.8112 14 37.9312 14.0533 37.1445 14.16L37.0645 13.66C37.6645 13.4733 38.3045 13.3333 38.9845 13.24L42.1445 2.04C40.5712 2.04 39.5645 2.25333 39.1245 2.68C39.0312 2.86667 38.9845 3.16 38.9845 3.56C38.9845 3.96 39.0512 4.23333 39.1845 4.38L39.1645 4.52C38.8312 4.72 38.4979 5 38.1645 5.36C38.0045 5.34667 37.8779 5.28 37.7845 5.16C37.6779 5.04 37.6245 4.9 37.6245 4.74C37.6245 4.08667 38.0179 3.30667 38.8045 2.4C39.5912 1.49333 40.3245 0.92 41.0045 0.68C43.0179 0.906666 45.0579 1.1 47.1245 1.26C47.3112 1.02 47.4645 0.713333 47.5845 0.339999L48.0045 0.459999ZM41.8045 7.98C42.4045 8.07333 43.1112 8.12 43.9245 8.12C44.7512 8.12 45.4379 8.07333 45.9845 7.98C45.9845 5.62 45.9512 3.69333 45.8845 2.2L45.8245 2.14C45.1312 2.07333 44.2712 2.04 43.2445 2.04L41.8045 7.98ZM50.9772 3.62L55.6172 3.48C58.0305 3.48 59.2372 4.35333 59.2372 6.1C59.2372 7.07333 58.8039 7.86 57.9372 8.46C57.0839 9.06 56.1105 9.36 55.0172 9.36C54.8572 9.36 54.7439 9.35333 54.6772 9.34L54.7572 8.68H54.9372C55.7639 8.68 56.3772 8.5 56.7772 8.14C57.1905 7.78 57.3972 7.21333 57.3972 6.44C57.3972 5.66667 57.2305 5.1 56.8972 4.74C56.5772 4.36667 56.0572 4.18 55.3372 4.18C54.8972 4.18 54.4839 4.25333 54.0972 4.4C54.0039 5.28 53.9572 6.77333 53.9572 8.88C53.9572 10.9867 54.0172 12.4733 54.1372 13.34C54.6972 13.4067 55.2839 13.5133 55.8972 13.66L55.8372 14.16C55.1839 14.0533 54.3972 14 53.4772 14C52.5572 14 51.7572 14.0533 51.0772 14.16L50.9972 13.64C51.3972 13.5067 51.8172 13.4067 52.2572 13.34C52.3905 12.4067 52.4572 10.9533 52.4572 8.98C52.4572 6.99333 52.3972 5.46 52.2772 4.38C51.8105 4.20667 51.3772 4.12 50.9772 4.12V3.62ZM60.1764 3.62L64.8164 3.48C67.2297 3.48 68.4364 4.35333 68.4364 6.1C68.4364 7.07333 68.0031 7.86 67.1364 8.46C66.2831 9.06 65.3097 9.36 64.2164 9.36C64.0564 9.36 63.9431 9.35333 63.8764 9.34L63.9564 8.68H64.1364C64.9631 8.68 65.5764 8.5 65.9764 8.14C66.3897 7.78 66.5964 7.21333 66.5964 6.44C66.5964 5.66667 66.4297 5.1 66.0964 4.74C65.7764 4.36667 65.2564 4.18 64.5364 4.18C64.0964 4.18 63.6831 4.25333 63.2964 4.4C63.2031 5.28 63.1564 6.77333 63.1564 8.88C63.1564 10.9867 63.2164 12.4733 63.3364 13.34C63.8964 13.4067 64.4831 13.5133 65.0964 13.66L65.0364 14.16C64.3831 14.0533 63.5964 14 62.6764 14C61.7564 14 60.9564 14.0533 60.2764 14.16L60.1964 13.64C60.5964 13.5067 61.0164 13.4067 61.4564 13.34C61.5897 12.4067 61.6564 10.9533 61.6564 8.98C61.6564 6.99333 61.5964 5.46 61.4764 4.38C61.0097 4.20667 60.5764 4.12 60.1764 4.12V3.62ZM76.6956 14.22C75.829 14.0733 74.649 14 73.1556 14C71.6756 14 70.4356 14.0667 69.4356 14.2L69.3756 13.7C69.749 13.5533 70.1756 13.4333 70.6556 13.34C70.789 12.54 70.8556 11.18 70.8556 9.26V8.32C70.8556 6.66667 70.789 5.30667 70.6556 4.24C70.2156 4.17333 69.7956 4.07333 69.3956 3.94L69.4756 3.42C70.1556 3.52667 70.9556 3.58 71.8756 3.58C72.7956 3.58 73.5823 3.52667 74.2356 3.42L74.2956 3.92C73.6956 4.06667 73.1023 4.17333 72.5156 4.24C72.409 4.96 72.3556 6.44667 72.3556 8.7C72.3556 10.94 72.409 12.4333 72.5156 13.18C72.8356 13.2333 73.289 13.26 73.8756 13.26C74.4623 13.26 74.989 13.1467 75.4556 12.92C75.6423 12.4667 75.7356 11.9333 75.7356 11.32H76.2356C76.289 12.3467 76.4756 13.18 76.7956 13.82L76.6956 14.22ZM80.6602 4.24C80.5535 4.96 80.5002 6.43333 80.5002 8.66C80.5002 10.8867 80.5602 12.4467 80.6802 13.34C81.2802 13.4067 81.8335 13.5067 82.3402 13.64L82.2802 14.14C81.5868 14.0467 80.8068 14 79.9402 14C79.0868 14 78.3202 14.0533 77.6402 14.16L77.5602 13.64C77.9335 13.52 78.3535 13.42 78.8202 13.34C78.9402 12.38 79.0002 11.02 79.0002 9.26V8.32C79.0002 6.56 78.9335 5.2 78.8002 4.24C78.3335 4.16 77.9135 4.06 77.5402 3.94L77.6202 3.42C78.3002 3.52667 79.0668 3.58 79.9202 3.58C80.7868 3.58 81.5668 3.53333 82.2602 3.44L82.3202 3.94C81.8135 4.07333 81.2602 4.17333 80.6602 4.24ZM88.212 12.84C89.132 12.84 89.9987 12.4333 90.812 11.62L91.092 11.9C90.1987 13.0333 89.1254 13.8133 87.872 14.24C86.5787 14.24 85.5654 13.8333 84.832 13.02C84.0987 12.1933 83.732 11.0867 83.732 9.7C83.732 8.3 84.1654 6.98667 85.032 5.76C85.8987 4.53333 87.0054 3.72667 88.352 3.34C89.3254 3.34 90.4254 3.44 91.652 3.64L91.632 4.08C91.3787 4.08 91.1387 4.12667 90.912 4.22C90.6587 4.82 90.492 5.53333 90.412 6.36H89.912C89.8054 5.90667 89.752 5.44 89.752 4.96C89.2454 4.70667 88.6454 4.58 87.952 4.58C87.2587 4.58 86.6854 4.76667 86.232 5.14C85.712 6.08667 85.452 7.23333 85.452 8.58C85.452 10.6733 85.8987 11.9867 86.792 12.52C87.1787 12.7333 87.652 12.84 88.212 12.84ZM93.6639 3.36C94.9172 3.50667 96.1839 3.58 97.4639 3.58C98.7439 3.58 100.004 3.50667 101.244 3.36L101.324 3.88C100.924 4.04 100.511 4.16 100.084 4.24C99.9372 5.33333 99.8639 6.85333 99.8639 8.8C99.8639 10.7467 99.9372 12.2667 100.084 13.36C100.351 13.4 100.844 13.5 101.564 13.66L101.484 14.16C100.844 14.0533 100.024 14 99.0239 14C98.0239 14 97.2572 14.0533 96.7239 14.16L96.6439 13.64C97.0972 13.4933 97.6106 13.3867 98.1839 13.32C98.2639 12.5467 98.3239 11.4733 98.3639 10.1C97.7372 10.0333 97.1106 10 96.4839 10C95.8572 10 95.3106 10.0333 94.8439 10.1C94.5772 11.1933 94.4439 11.9533 94.4439 12.38C94.4439 13.0333 94.6772 13.4933 95.1439 13.76L95.0639 14.1C94.7572 14.0333 94.1772 14 93.3239 14C92.4706 14 91.7972 14.0533 91.3039 14.16L91.2239 13.64C91.5439 13.52 91.9839 13.4133 92.5439 13.32L95.1439 4.2C94.5572 4.10667 94.0439 4 93.6039 3.88L93.6639 3.36ZM95.0039 9.16C95.5239 9.24 96.0972 9.28 96.7239 9.28C97.3639 9.28 97.9106 9.24 98.3639 9.16C98.3639 6.69333 98.3106 5.1 98.2039 4.38C97.7506 4.35333 97.4106 4.34 97.1839 4.34C96.9706 4.34 96.6372 4.35333 96.1839 4.38L95.0039 9.16ZM109.607 4.66C109.14 4.43333 108.694 4.32 108.267 4.32C107.84 4.32 107.554 4.34667 107.407 4.4C107.3 5.12 107.247 6.51333 107.247 8.58C107.247 10.6467 107.32 12.2333 107.467 13.34C108.067 13.4067 108.62 13.5067 109.127 13.64L109.067 14.14C108.374 14.0467 107.574 14 106.667 14C105.774 14 104.987 14.0533 104.307 14.16L104.227 13.64C104.494 13.56 104.954 13.46 105.607 13.34C105.727 12.38 105.787 11.02 105.787 9.26V8.32C105.787 7.38667 105.714 6.08 105.567 4.4C105.42 4.34667 105.147 4.32 104.747 4.32C104.347 4.32 103.92 4.41333 103.467 4.6C103.334 5.01333 103.24 5.56667 103.187 6.26H102.667C102.667 5.16667 102.487 4.32 102.127 3.72L102.227 3.38C103.254 3.51333 104.694 3.58 106.547 3.58C108.4 3.58 109.894 3.50667 111.027 3.36L111.147 3.74C110.814 4.11333 110.587 4.48 110.467 4.84C110.347 5.18667 110.274 5.66 110.247 6.26H109.747C109.654 5.82 109.607 5.28667 109.607 4.66ZM114.82 4.24C114.714 4.96 114.66 6.43333 114.66 8.66C114.66 10.8867 114.72 12.4467 114.84 13.34C115.44 13.4067 115.994 13.5067 116.5 13.64L116.44 14.14C115.747 14.0467 114.967 14 114.1 14C113.247 14 112.48 14.0533 111.8 14.16L111.72 13.64C112.094 13.52 112.514 13.42 112.98 13.34C113.1 12.38 113.16 11.02 113.16 9.26V8.32C113.16 6.56 113.094 5.2 112.96 4.24C112.494 4.16 112.074 4.06 111.7 3.94L111.78 3.42C112.46 3.52667 113.227 3.58 114.08 3.58C114.947 3.58 115.727 3.53333 116.42 3.44L116.48 3.94C115.974 4.07333 115.42 4.17333 114.82 4.24ZM122.252 14.24C120.932 14.24 119.866 13.8267 119.052 13C118.239 12.16 117.832 11.04 117.832 9.64C117.832 8.24 118.259 6.92667 119.112 5.7C119.966 4.47333 121.079 3.68667 122.452 3.34C123.826 3.34 124.872 3.73333 125.592 4.52C126.312 5.29333 126.672 6.4 126.672 7.84C126.672 9.28 126.279 10.58 125.492 11.74C124.719 12.9 123.639 13.7333 122.252 14.24ZM121.912 4.56C121.312 4.56 120.792 4.72667 120.352 5.06C119.806 5.99333 119.532 7.16667 119.532 8.58C119.532 10.2067 119.986 11.4533 120.892 12.32C121.372 12.7867 121.939 13.02 122.592 13.02C123.246 13.02 123.772 12.8467 124.172 12.5C124.706 11.5667 124.972 10.4267 124.972 9.08C124.972 7.73333 124.732 6.64667 124.252 5.82C123.772 4.98 122.992 4.56 121.912 4.56ZM133.2 14.14C132.506 14.0467 131.726 14 130.86 14C130.006 14 129.24 14.0533 128.56 14.16L128.48 13.64C128.906 13.5067 129.306 13.4067 129.68 13.34C129.8 12.3 129.86 10.94 129.86 9.26V8.32C129.86 6.53333 129.793 5.16 129.66 4.2C129.3 4.16 128.866 4.05333 128.36 3.88L128.42 3.36C129.18 3.50667 129.973 3.58 130.8 3.58C131.64 3.58 132.24 3.53333 132.6 3.44L132.64 3.78C132.28 3.87333 132.1 4.02667 132.1 4.24C132.1 4.4 132.253 4.74 132.56 5.26C132.88 5.76667 133.186 6.26 133.48 6.74C134.36 8.14 135.4 9.86 136.6 11.9L136.66 11.86V9.42C136.66 7.63333 136.566 6.29333 136.38 5.4C136.193 4.49333 135.873 3.96667 135.42 3.82L135.46 3.48C135.806 3.54667 136.326 3.58 137.02 3.58C137.713 3.58 138.426 3.50667 139.16 3.36L139.22 3.88C138.673 4.05333 138.213 4.16 137.84 4.2C137.706 5.26667 137.64 6.64 137.64 8.32V9.26C137.64 11.2867 137.706 12.66 137.84 13.38C138.4 13.4733 138.846 13.58 139.18 13.7L139.12 14.22C138.453 14.0733 137.826 14 137.24 14C136.653 14 136.2 14.0267 135.88 14.08C135.88 13.7867 135.673 13.2933 135.26 12.6C134.86 11.9067 134.493 11.2933 134.16 10.76C133.08 9.01333 132.02 7.24 130.98 5.44L130.9 5.48V8.16C130.9 10.8133 131.1 12.54 131.5 13.34C132.1 13.4067 132.686 13.5067 133.26 13.64L133.2 14.14Z" fill="url(#paint0_linear)"/>
<defs>
<linearGradient id="paint0_linear" x1="70" y1="-5" x2="70" y2="19" gradientUnits="userSpaceOnUse">
<stop stop-color="#FC0000"/>
<stop offset="1" stop-color="#00FCCE"/>
</linearGradient>
</defs>
</svg>
