<svg width="20" height="18" viewBox="0 0 20 18" fill="none" xmlns="http://www.w3.org/2000/svg">
<path d="M5.38516 12.68C6.01182 12.68 6.66516 12.4933 7.34516 12.12V10.48C7.34516 10.1733 7.31849 9.72667 7.26516 9.14C6.79849 9.00667 6.19182 8.87333 5.44516 8.74L5.50516 8.32C5.81182 8.36 6.10516 8.38 6.38516 8.38C7.55849 8.38 8.63182 8.05333 9.60516 7.4L9.78516 7.76C9.47849 8 9.23849 8.24 9.06516 8.48C8.81182 10.8 8.67849 12.9667 8.66516 14.98C8.27849 15.6867 7.63849 16.3667 6.74516 17.02C5.86516 17.6733 5.05849 18 4.32516 18C4.12516 18 3.95849 17.9467 3.82516 17.84C3.69182 17.7333 3.62516 17.5867 3.62516 17.4C4.01182 17.1067 4.33849 16.7667 4.60516 16.38L4.74516 16.36C5.03849 16.5867 5.37849 16.7 5.76516 16.7C6.15182 16.7 6.41849 16.66 6.56516 16.58C7.11182 15.8467 7.38516 14.6467 7.38516 12.98C6.65182 13.5533 5.83849 13.9933 4.94516 14.3C3.34516 14.3 2.13849 13.8 1.32516 12.8C0.525156 11.7867 0.125156 10.3933 0.125156 8.62C0.125156 6.83333 0.611823 5.18 1.58516 3.66C2.57182 2.12667 3.89182 1.13333 5.54516 0.68C6.93182 0.68 8.32516 0.806666 9.72516 1.06L9.70516 1.5C9.37182 1.5 9.05182 1.56 8.74516 1.68C8.38516 2.52 8.16516 3.46 8.08516 4.5H7.58516C7.46516 3.95333 7.40516 3.33333 7.40516 2.64C6.77849 2.29333 6.01182 2.12 5.10516 2.12C4.19849 2.12 3.47182 2.34667 2.92516 2.8C2.24516 3.96 1.90516 5.43333 1.90516 7.22C1.90516 10.86 3.06516 12.68 5.38516 12.68ZM10.638 13.76C10.638 12.5867 10.8913 11.5733 11.398 10.72C11.918 9.86667 12.458 9.44 13.018 9.44C13.1646 9.44 13.3113 9.48667 13.458 9.58L13.518 9.72C13.3446 10.0533 13.238 10.4733 13.198 10.98L13.078 11.06C13.0246 11.0333 12.9246 11.02 12.778 11.02C12.6313 11.02 12.4113 11.1 12.118 11.26C11.838 11.42 11.618 11.58 11.458 11.74C11.3646 11.9267 11.318 12.14 11.318 12.38C11.318 13.0067 11.738 13.5467 12.578 14C13.4313 14.44 14.2513 14.66 15.038 14.66C16.678 14.66 17.498 13.7267 17.498 11.86C17.498 11.1533 16.8246 10.2667 15.478 9.2C14.918 8.74667 14.358 8.29333 13.798 7.84C12.4513 6.77333 11.778 5.84667 11.778 5.06C11.778 4.12667 12.198 3.26 13.038 2.46C13.878 1.64667 14.8313 1.05333 15.898 0.68C17.0446 0.68 18.1313 0.793333 19.158 1.02V1.42C18.4646 2.06 18.078 3.04667 17.998 4.38H17.498C17.498 3.67333 17.4646 3.05333 17.398 2.52C16.8246 2.25333 16.198 2.12 15.518 2.12C14.8513 2.12 14.2846 2.26667 13.818 2.56C13.3513 2.84 13.118 3.2 13.118 3.64C13.118 4.08 13.3113 4.52667 13.698 4.98C14.098 5.42 14.578 5.85333 15.138 6.28C15.698 6.69333 16.2513 7.12 16.798 7.56C17.358 7.98667 17.8313 8.45333 18.218 8.96C18.618 9.45333 18.818 9.93333 18.818 10.4C18.818 11.7333 18.4513 12.92 17.718 13.96C16.9846 15 15.9846 15.78 14.718 16.3C13.0513 16.1267 11.718 15.66 10.718 14.9C10.6646 14.5267 10.638 14.1467 10.638 13.76Z" fill="url(#paint0_linear)"/>
<defs>
<linearGradient id="paint0_linear" x1="9.5" y1="-5" x2="9.5" y2="19" gradientUnits="userSpaceOnUse">
<stop stop-color="#F10707"/>
<stop offset="1" stop-color="#00FEDF"/>
</linearGradient>
</defs>
</svg>
